<?xml version="1.0" encoding="UTF-8"?><svg id="Ebene_1" xmlns="http://www.w3.org/2000/svg" viewBox="0 0 375.941 434.836"><defs><style>.cls-1{fill:#ec6707;}.cls-2{fill:#00438e;}</style></defs><path class="cls-2" d="M279.469,312.073c1.143.857,2.486,1.638,4.019,2.346,1.535.706,3.115,1.066,4.742,1.066.518,0,1.047-.045,1.587-.145.533-.104.996-.277,1.395-.518.399-.25.729-.589.987-1.011.262-.429.388-.96.388-1.619,0-1.22-.476-2.183-1.431-2.892-.953-.717-2.169-1.378-3.631-1.983-1.126-.491-2.184-1.034-3.194-1.618-1.017-.589-1.908-1.284-2.651-2.079-.759-.785-1.36-1.721-1.798-2.806-.439-1.075-.652-2.346-.652-3.813,0-1.503.318-2.853.955-4.052.627-1.198,1.465-2.215,2.499-3.053,1.038-.83,2.243-1.471,3.616-1.917,1.369-.454,2.791-.674,4.261-.674,1.91,0,3.576.205,5.011.612,1.426.407,2.719.906,3.874,1.525l-1.017,6.286c-1.038-.699-2.188-1.307-3.454-1.83-1.269-.535-2.666-.8-4.18-.8-.951,0-1.845.273-2.683.832-.825.546-1.25,1.346-1.25,2.408,0,.522.104.991.299,1.399.2.403.512.795.951,1.158.443.371,1.011.731,1.732,1.096.717.369,1.591.778,2.627,1.222,1.028.446,2.028.959,3.007,1.527.972.569,1.829,1.247,2.567,2.007.733.778,1.322,1.691,1.753,2.749.444,1.055.661,2.301.661,3.715,0,3.297-1.077,5.849-3.215,7.632-2.15,1.783-5.032,2.683-8.662,2.683-2.017,0-3.804-.205-5.363-.612-1.539-.407-3.062-1-4.531-1.77l.782-7.073Z"/><path class="cls-2" d="M303.264,312.073c1.154.857,2.499,1.638,4.028,2.346,1.525.706,3.105,1.066,4.736,1.066.523,0,1.049-.045,1.578-.145.537-.104,1.011-.277,1.41-.518.399-.25.727-.589.985-1.011.252-.429.384-.96.384-1.619,0-1.22-.478-2.183-1.431-2.892-.957-.717-2.167-1.378-3.64-1.983-1.117-.491-2.177-1.034-3.188-1.618-1.021-.589-1.904-1.284-2.659-2.079-.755-.785-1.346-1.721-1.787-2.806-.439-1.075-.655-2.346-.655-3.813,0-1.503.316-2.853.951-4.052.633-1.198,1.473-2.215,2.51-3.053,1.028-.83,2.239-1.471,3.606-1.917,1.369-.454,2.798-.674,4.26-.674,1.919,0,3.576.205,5.015.612,1.431.407,2.723.906,3.875,1.525l-1.011,6.286c-1.038-.699-2.188-1.307-3.459-1.83-1.275-.535-2.668-.8-4.179-.8-.945,0-1.849.273-2.682.832-.832.546-1.252,1.346-1.252,2.408,0,.522.102.991.296,1.399.203.403.518.795.957,1.158.437.371,1.009.731,1.736,1.096.704.369,1.58.778,2.623,1.222,1.022.446,2.034.959,3.009,1.527.966.569,1.829,1.247,2.559,2.007.738.778,1.326,1.691,1.761,2.749.441,1.055.661,2.301.661,3.715,0,3.297-1.071,5.849-3.224,7.632-2.145,1.783-5.034,2.683-8.649,2.683-2.026,0-3.819-.205-5.371-.612-1.55-.407-3.058-1-4.531-1.77l.778-7.073Z"/><path class="cls-2" d="M52.635,310.55c1.751,1.258,3.557,2.243,5.429,2.958,1.866.708,3.877,1.064,6.024,1.064,2.35,0,4.154-.469,5.427-1.403,1.271-.94,1.909-2.239,1.909-3.902,0-1.019-.141-1.894-.416-2.625-.281-.736-.738-1.409-1.373-2.009-.637-.61-1.474-1.188-2.504-1.744-1.036-.552-2.288-1.168-3.759-1.866-1.674-.766-3.175-1.55-4.506-2.348-1.333-.787-2.467-1.689-3.397-2.712-.938-1.013-1.648-2.201-2.147-3.563-.499-1.362-.748-2.998-.748-4.915,0-1.996.358-3.764,1.075-5.339.714-1.563,1.721-2.887,3.011-3.958,1.292-1.079,2.842-1.902,4.653-2.473,1.808-.571,3.827-.853,6.052-.853,2.269,0,4.376.282,6.323.853,1.951.571,3.597,1.299,4.949,2.192l-1.49,7.448c-1.275-1.023-2.714-1.877-4.324-2.565-1.61-.689-3.367-1.034-5.278-1.034s-3.484.446-4.711,1.339c-1.235.891-1.851,2.113-1.851,3.663,0,.93.153,1.729.444,2.376.303.652.74,1.239,1.316,1.77.578.525,1.303,1.026,2.177,1.495.874.461,1.891.962,3.043,1.497,1.67.772,3.239,1.539,4.711,2.316,1.471.772,2.744,1.674,3.817,2.708,1.073,1.036,1.926,2.252,2.563,3.631.64,1.382.955,3.073.955,5.071,0,4.429-1.45,7.856-4.354,10.272-2.902,2.422-6.917,3.629-12.048,3.629-2.504,0-4.762-.331-6.768-1.006-2.013-.672-3.729-1.45-5.162-2.346l.955-7.623Z"/><path class="cls-2" d="M83.471,288.096h7.933v21.78c0,1.665.32,2.958.955,3.872.638.919,1.652,1.377,3.037,1.377,1.237,0,2.264-.392,3.075-1.164.815-.776,1.563-1.81,2.237-3.113v-22.752h7.813v32.704h-7.576v-3.973c-.313.49-.704,1.006-1.162,1.554-.46.557-1.007,1.064-1.635,1.527-.64.473-1.367.862-2.184,1.16-.812.303-1.736.459-2.766.459-1.751,0-3.248-.267-4.48-.789-1.226-.531-2.231-1.294-3.011-2.295-.772-.991-1.345-2.19-1.699-3.587-.356-1.41-.538-2.97-.538-4.674v-22.085Z"/><path class="cls-2" d="M113.411,288.096h7.576v3.906c.281-.486.657-1.004,1.139-1.559.473-.548,1.028-1.056,1.668-1.527.633-.459,1.356-.844,2.175-1.156.817-.305,1.736-.454,2.772-.454,3.501,0,5.998,1.024,7.489,3.075,1.495,2.058,2.233,4.815,2.233,8.263v22.157h-7.935v-21.848c0-1.661-.316-2.953-.955-3.866-.629-.919-1.646-1.378-3.032-1.378-1.243,0-2.26.392-3.075,1.16-.815.77-1.567,1.804-2.241,3.115v22.818h-7.815v-32.704Z"/><polygon class="cls-2" points="143.657 275.598 168.169 275.598 167.87 282.611 152.007 282.611 152.007 293.833 164.949 293.833 164.949 300.847 152.007 300.847 152.007 313.78 168.943 313.78 168.943 320.801 143.657 320.801 143.657 275.598"/><path class="cls-2" d="M171.265,320.801c.877-1.55,1.721-3.022,2.538-4.431.812-1.399,1.655-2.83,2.531-4.297.795-1.299,1.621-2.629,2.474-3.964.861-1.348,1.682-2.646,2.474-3.904-.87-1.345-1.715-2.712-2.529-4.09-.815-1.382-1.625-2.746-2.42-4.09-.793-1.299-1.554-2.623-2.26-3.962-.721-1.346-1.461-2.661-2.214-3.968h8.894l1.962,3.842c.405.776.859,1.653,1.369,2.623.522.979,1.058,1.919,1.618,2.81.516-.812,1.086-1.746,1.725-2.81.638-1.058,1.188-1.989,1.667-2.802.367-.571.702-1.16,1.023-1.768.314-.61.657-1.243,1.013-1.894h8.35c-.802,1.386-1.561,2.706-2.294,3.968-.738,1.26-1.499,2.557-2.294,3.9-.761,1.267-1.55,2.555-2.358,3.881-.819,1.314-1.619,2.567-2.418,3.747.798,1.307,1.638,2.685,2.529,4.158.898,1.454,1.744,2.898,2.54,4.324.791,1.42,1.601,2.842,2.412,4.273.815,1.418,1.638,2.906,2.474,4.455h-8.883l-2.506-4.585-3.16-5.542-3.162,5.297c-.444.734-.891,1.495-1.346,2.284-.452.798-.923,1.642-1.393,2.546h-8.357Z"/><path class="cls-2" d="M202.937,288.095h7.809v2.38c.721-.902,1.644-1.651,2.772-2.254,1.139-.61,2.465-.917,3.971-.917,3.657,0,6.536,1.409,8.615,4.235,2.094,2.832,3.132,7.026,3.132,12.604,0,5.847-1.038,10.216-3.132,13.08-2.079,2.872-4.855,4.305-8.318,4.305-1.032,0-1.923-.126-2.683-.367-.757-.245-1.422-.542-2.004-.887-.569-.345-1.049-.734-1.426-1.156-.378-.429-.678-.821-.928-1.196v16.229h-7.809v-46.055ZM210.747,312.308c.439.699,1.064,1.371,1.885,2.017.814.655,1.77.983,2.896.983,1.544,0,2.887-.862,4.024-2.595,1.126-1.725,1.699-4.465,1.699-8.205,0-3.943-.555-6.774-1.67-8.483-1.115-1.706-2.525-2.561-4.235-2.561-1.154,0-2.096.305-2.838.919-.734.61-1.322,1.194-1.761,1.768v16.157Z"/><path class="cls-2" d="M232.759,288.096h7.576v5.126c.358-.729.791-1.441,1.282-2.107.493-.672,1.073-1.26,1.729-1.768.661-.508,1.435-.913,2.326-1.22.894-.303,1.917-.454,3.075-.454.797,0,1.489.056,2.085.181l-.719,6.706c-.269-.077-.565-.139-.861-.177-.299-.043-.663-.064-1.103-.064-1.712,0-3.186.382-4.408,1.134-1.235.751-2.292,2.034-3.164,3.875v21.473h-7.817v-32.704Z"/><path class="cls-2" d="M275.352,318.537c-1.038.893-2.343,1.612-3.909,2.171-1.572.535-3.608.817-6.118.817-2.137,0-4.111-.405-5.903-1.226-1.791-.808-3.316-1.966-4.591-3.472-1.269-1.503-2.248-3.303-2.949-5.397-.699-2.094-1.051-4.403-1.051-6.922,0-5.444,1.158-9.681,3.467-12.694,2.295-3.007,5.448-4.508,9.423-4.508s6.968,1.29,8.977,3.874,3.015,6.067,3.015,10.466c0,.725-.028,1.486-.062,2.252-.04.78-.098,1.378-.185,1.832h-16.748c.034,1.384.29,2.644.768,3.778.478,1.143,1.103,2.126,1.877,2.956.768.842,1.659,1.484,2.659,1.958.991.463,2.039.704,3.156.704,3.022,0,5.566-1.004,7.632-2.994l.542,6.404ZM268.076,300.237c-.126-4.915-1.572-7.382-4.356-7.382-1.352,0-2.48.586-3.365,1.768-.902,1.181-1.426,3.051-1.587,5.614h9.308Z"/><path class="cls-2" d="M211.512,171.647c-31.192,2.28-74.364,9.15-105.373,7.472,3.271,6.63,7.355,12.869,12.186,18.583,2.698,3.171,5.619,6.197,8.77,9.014,16.843,15.129,38.511,23.462,61.013,23.462,22.648,0,44.3-8.192,60.973-23.066,6.89-6.145,12.474-12.739,16.908-19.985,3-4.904,5.469-10.101,7.453-15.666-13.359-2.651-36.216-1.697-61.93.186"/><path class="cls-2" d="M137.894,63.957c-.569-.124-1.16-.009-1.633.324-1.653,1.137-3.307,2.369-4.898,3.631-.814.636-1.034,1.776-.522,2.661l15.464,26.783.795,1.075c.064.085.043.105-.034.053l-1.075-.804-26.806-15.473c-.881-.51-2.024-.303-2.655.512-1.265,1.597-2.484,3.245-3.619,4.904-.324.478-.439,1.075-.313,1.627.13.563.484,1.055.985,1.346l45.722,26.388c.324.186.684.269,1.034.269.578,0,1.152-.239,1.565-.708,1.026-1.169,2.134-2.284,3.292-3.297.746-.659.928-1.742.433-2.599l-26.388-45.701c-.298-.51-.776-.864-1.346-.991"/><path class="cls-2" d="M263.342,89.239c.126-.552.023-1.149-.313-1.629-1.147-1.657-2.369-3.307-3.642-4.902-.629-.815-1.768-1.024-2.65-.512l-26.793,15.462-1.077.795c-.075.062-.098.041-.036-.032l.798-1.075,15.47-26.806c.512-.885.296-2.034-.518-2.659-1.591-1.264-3.245-2.484-4.904-3.621-.471-.333-1.06-.45-1.627-.311-.565.122-1.043.478-1.343.977l-26.386,45.724c-.188.322-.279.678-.279,1.034,0,.584.252,1.156.717,1.565,1.168,1.023,2.288,2.128,3.297,3.297.65.74,1.747.926,2.602.426l45.699-26.386c.503-.294.857-.772.981-1.346"/><path class="cls-2" d="M228.195,58.271c-.177-.554-.567-1.002-1.094-1.252-1.817-.866-3.706-1.68-5.604-2.431-.955-.375-2.034,0-2.555.885l-15.468,26.785-.533,1.233c-.041.092-.062.081-.053-.023l.153-1.328v-30.943c0-1.034-.757-1.911-1.781-2.056-2.011-.294-4.047-.512-6.049-.68-.574-.04-1.151.156-1.565.554-.435.386-.674.94-.674,1.514l.009,52.795c0,.377.1.719.277,1.032.288.503.789.876,1.393,1.004,1.527.301,3.053.699,4.506,1.198.94.314,1.977-.072,2.469-.928l26.382-45.711c.286-.501.36-1.096.187-1.648"/><path class="cls-2" d="M278.282,133.646c.395-.429.586-1.002.544-1.576-.168-2.004-.397-4.049-.7-6.073-.143-1.011-1.013-1.763-2.043-1.763l-30.938-.011-1.324.156c-.105.011-.105-.009-.015-.051l1.224-.531,26.797-15.475c.891-.522,1.277-1.608.891-2.565-.748-1.891-1.574-3.768-2.439-5.583-.247-.522-.706-.917-1.256-1.087-.552-.166-1.147-.104-1.642.179l-45.72,26.407c-.33.179-.58.45-.757.753-.288.499-.371,1.124-.173,1.71.514,1.471.923,2.994,1.216,4.508.198.972,1.047,1.67,2.03,1.67h52.783c.572,0,1.126-.252,1.522-.669"/><path class="cls-2" d="M106.926,99.079c-.552.179-1.011.574-1.256,1.094-.861,1.817-1.676,3.706-2.427,5.604-.386.949,0,2.034.885,2.557l26.787,15.462,1.224.531c.1.041.089.064-.019.064l-1.32-.158h-30.947c-1.028,0-1.904.753-2.045,1.776-.297,2.013-.527,4.049-.689,6.06-.038.576.156,1.151.548,1.569.39.416.944.665,1.518.665l52.791-.009c.375,0,.731-.094,1.039-.271.499-.301.876-.793,1-1.397.294-1.535.695-3.049,1.196-4.508.324-.94-.068-1.972-.919-2.473l-45.711-26.386c-.501-.284-1.102-.348-1.655-.179"/><path class="cls-2" d="M182.276,49.016c-.422-.388-.996-.586-1.576-.542-2.004.166-4.043.395-6.062.699-1.023.156-1.774,1.021-1.774,2.045l-.004,30.936.156,1.326c.009.105-.017.105-.053.011l-.537-1.22-15.47-26.804c-.51-.889-1.606-1.275-2.567-.879-1.889.751-3.768,1.567-5.582,2.431-.518.252-.923.701-1.092,1.262-.171.544-.098,1.139.188,1.64l26.397,45.722c.188.322.45.582.765.761.505.282,1.115.365,1.704.169,1.476-.503,2.988-.921,4.508-1.213.97-.198,1.674-1.053,1.674-2.034l-.009-52.787c0-.584-.239-1.136-.668-1.522"/><path class="cls-1" d="M273.041,145.717c-19.057,0-33.655,4.64-71.498,12.673-53.542,11.372-91.57,1.983-100.287.855-1.299-.16-2.151.501-1.712,1.962.945,4.35,4.164,13.671,6.593,17.91,31.011,1.68,74.183-5.19,105.375-7.472,25.716-1.883,48.569-2.838,61.93-.186,2.166-6.073,3.755-12.568,4.809-19.581.604-4.011.113-6.162-5.211-6.162"/><path class="cls-1" d="M98.971,152.219c1.789.704,26.539,9.135,64.967,9.683,10.903.162,24.817-1.461,33.128-3.277-4.367.689-13.641,2.086-25.147,2.039-22.14-.077-55.725-7.841-71.665-14.946-.652-.303-1.429-.188-2.013.239-.59.429-.911,1.128-.851,1.859.083,1.021.188,2.045.298,3.06.094.503.245.93,1.284,1.343"/><g id="Holidays"><path class="cls-2" d="M116.165,381.12h-5.905v-18.39h-16.423v18.39h-5.905v-40.156h5.905v16.647h16.423v-16.647h5.905v40.156Z"/><path class="cls-2" d="M149.459,365.879c0,4.912-1.126,8.773-3.374,11.585-2.252,2.812-5.456,4.218-9.618,4.218-2.586,0-4.837-.637-6.749-1.912-1.912-1.274-3.394-3.093-4.443-5.455-1.05-2.362-1.575-5.174-1.575-8.436,0-4.949,1.115-8.792,3.346-11.529,2.23-2.737,5.427-4.105,9.589-4.105,3.823,0,6.916,1.35,9.278,4.049,2.362,2.7,3.546,6.562,3.546,11.586ZM129.549,365.934c0,3.488.563,6.186,1.688,8.098,1.124,1.913,2.905,2.869,5.342,2.869s4.218-.947,5.342-2.841c1.126-1.892,1.687-4.62,1.687-8.183,0-3.524-.561-6.215-1.687-8.071-1.124-1.855-2.905-2.784-5.342-2.784s-4.218.938-5.342,2.812c-1.125,1.875-1.688,4.575-1.688,8.098Z"/><path class="cls-2" d="M162.169,381.12h-5.793v-42.742h5.793v42.742Z"/><path class="cls-2" d="M173.529,339.221c.935,0,1.715.281,2.332.844.62.562.929,1.443.929,2.643,0,1.163-.309,2.034-.929,2.615-.618.582-1.397.872-2.332.872s-1.716-.29-2.334-.872c-.62-.581-.929-1.452-.929-2.615,0-1.2.309-2.081.929-2.643.618-.563,1.395-.844,2.334-.844ZM176.397,350.806v30.314h-5.793v-30.314h5.793Z"/><path class="cls-2" d="M194.281,381.682c-3.412,0-6.095-1.33-8.043-3.993-1.95-2.661-2.925-6.561-2.925-11.698s.983-9.045,2.952-11.726,4.641-4.021,8.015-4.021c1.948,0,3.608.413,4.977,1.237,1.368.825,2.465,1.893,3.29,3.205h.28c-.038-.675-.103-1.462-.196-2.362-.094-.9-.141-1.706-.141-2.418v-11.529h5.736v42.742h-4.555l-.899-3.881h-.281c-.863,1.313-1.95,2.381-3.263,3.206-1.313.824-2.962,1.237-4.948,1.237ZM195.687,376.957c2.475,0,4.246-.824,5.314-2.474,1.069-1.649,1.603-4.124,1.603-7.424v-1.181c0-3.562-.515-6.252-1.546-8.071-1.032-1.818-2.859-2.727-5.484-2.727-2.137,0-3.74.965-4.807,2.896-1.069,1.932-1.603,4.621-1.603,8.07,0,3.525.542,6.224,1.631,8.099,1.086,1.875,2.719,2.811,4.893,2.811Z"/><path class="cls-2" d="M227.461,350.244c6.824,0,10.236,3.468,10.236,10.404v20.471h-4.219l-1.013-4.218h-.168c-1.162,1.612-2.41,2.812-3.74,3.599-1.332.788-3.103,1.181-5.315,1.181-2.624,0-4.704-.806-6.242-2.418-1.538-1.612-2.305-3.861-2.305-6.749,0-6.149,4.236-9.393,12.709-9.73l4.612-.168v-1.687c0-2.212-.441-3.787-1.322-4.724s-2.147-1.407-3.797-1.407c-1.313,0-2.597.207-3.851.619-1.256.413-2.485.919-3.685,1.519l-1.799-4.162c1.349-.75,2.877-1.358,4.583-1.828,1.706-.469,3.477-.703,5.315-.703ZM231.96,366.497l-3.486.112c-2.889.112-4.921.666-6.102,1.659-1.183.994-1.773,2.39-1.773,4.19,0,1.651.403,2.85,1.21,3.6.805.75,1.885,1.124,3.234,1.124,2.025,0,3.683-.675,4.977-2.024s1.939-3.318,1.939-5.905v-2.756Z"/><path class="cls-2" d="M241.859,350.806h6.129l5.4,16.872c.412,1.237.767,2.447,1.069,3.627.299,1.181.542,2.334.731,3.458h.225c.187-.936.439-2.024.759-3.262.318-1.237.683-2.511,1.097-3.824l5.175-16.872h6.074l-11.474,34.419c-1.05,3.074-2.399,5.408-4.049,7.002-1.651,1.594-3.807,2.391-6.469,2.391-.75,0-1.433-.048-2.053-.141-.618-.094-1.172-.197-1.658-.31v-4.724c.412.075.87.149,1.376.225s1.021.113,1.548.113c1.498,0,2.679-.46,3.542-1.378.862-.919,1.593-2.278,2.193-4.077l1.068-3.263-10.684-30.257Z"/><path class="cls-2" d="M290.9,372.627c0,2.962-.975,5.212-2.925,6.749-1.95,1.538-4.668,2.306-8.154,2.306-1.838,0-3.469-.15-4.893-.45s-2.719-.749-3.881-1.35v-5.286c1.162.638,2.532,1.201,4.105,1.687,1.576.487,3.131.731,4.668.731,1.874,0,3.252-.356,4.133-1.068s1.322-1.668,1.322-2.869c0-.675-.168-1.284-.506-1.828-.336-.542-.956-1.097-1.855-1.659s-2.193-1.218-3.881-1.969c-1.687-.749-3.131-1.527-4.33-2.333-1.2-.806-2.109-1.752-2.727-2.841-.62-1.087-.929-2.437-.929-4.05,0-2.586.956-4.592,2.868-6.017,1.912-1.425,4.462-2.137,7.65-2.137,1.649,0,3.204.178,4.667.534,1.462.357,2.887.872,4.275,1.547l-1.857,4.443c-1.162-.562-2.332-1.021-3.515-1.378-1.181-.355-2.408-.534-3.683-.534-1.574,0-2.775.291-3.599.871-.826.582-1.237,1.378-1.237,2.391,0,.712.187,1.331.563,1.855.374.526,1.03,1.05,1.969,1.575.935.526,2.211,1.163,3.824,1.913,1.612.75,3.017,1.518,4.217,2.306,1.2.787,2.118,1.725,2.756,2.811.637,1.088.956,2.438.956,4.05Z"/></g></svg>